<svg width="1440" height="830" viewBox="0 0 1440 830" fill="none" xmlns="http://www.w3.org/2000/svg">
<g clip-path="url(#clip0_366_157)">
<path d="M0 0H1440V830H0V0Z" fill="#B0BEFD"/>
<rect x="410.639" y="892.141" width="60" height="200" rx="30" transform="rotate(-144 410.639 892.141)" fill="#CFD8FF"/>
<rect x="646.737" y="892.141" width="60" height="200" rx="30" transform="rotate(-144 646.737 892.141)" fill="#CFD8FF"/>
<rect x="882.835" y="892.141" width="60" height="200" rx="30" transform="rotate(-144 882.835 892.141)" fill="#CFD8FF"/>
<rect x="1118.93" y="891.141" width="60" height="200" rx="30" transform="rotate(-144 1118.93 891.141)" fill="#CFD8FF"/>
<rect x="1355.03" y="890.141" width="60" height="200" rx="30" transform="rotate(-144 1355.03 890.141)" fill="#CFD8FF"/>
<rect x="174.541" y="892.141" width="60" height="200" rx="30" transform="rotate(-144 174.541 892.141)" fill="#CFD8FF"/>
<rect x="-62.4595" y="892.152" width="60" height="200" rx="30" transform="rotate(-144 -62.4595 892.152)" fill="#CFD8FF"/>
<rect x="181.639" y="643.071" width="60" height="200" rx="30" transform="rotate(-144 181.639 643.071)" fill="#CFD8FF"/>
<rect x="417.737" y="643.071" width="60" height="200" rx="30" transform="rotate(-144 417.737 643.071)" fill="#CFD8FF"/>
<rect x="653.835" y="643.071" width="60" height="200" rx="30" transform="rotate(-144 653.835 643.071)" fill="#CFD8FF"/>
<rect x="889.934" y="642.071" width="60" height="200" rx="30" transform="rotate(-144 889.934 642.071)" fill="#CFD8FF"/>
<rect x="1126.03" y="641.071" width="60" height="200" rx="30" transform="rotate(-144 1126.03 641.071)" fill="#CFD8FF"/>
<rect x="1363.03" y="641.071" width="60" height="200" rx="30" transform="rotate(-144 1363.03 641.071)" fill="#CFD8FF"/>
<rect x="-54.459" y="643.071" width="60" height="200" rx="30" transform="rotate(-144 -54.459 643.071)" fill="#CFD8FF"/>
<rect x="416.639" y="389.071" width="60" height="200" rx="30" transform="rotate(-144 416.639 389.071)" fill="#CFD8FF"/>
<rect x="652.737" y="389.071" width="60" height="200" rx="30" transform="rotate(-144 652.737 389.071)" fill="#CFD8FF"/>
<rect x="888.835" y="389.071" width="60" height="200" rx="30" transform="rotate(-144 888.835 389.071)" fill="#CFD8FF"/>
<rect x="1124.93" y="388.071" width="60" height="200" rx="30" transform="rotate(-144 1124.93 388.071)" fill="#CFD8FF"/>
<rect x="1361.03" y="387.071" width="60" height="200" rx="30" transform="rotate(-144 1361.03 387.071)" fill="#CFD8FF"/>
<rect x="180.541" y="389.071" width="60" height="200" rx="30" transform="rotate(-144 180.541 389.071)" fill="#CFD8FF"/>
<rect x="-56.459" y="389.082" width="60" height="200" rx="30" transform="rotate(-144 -56.459 389.082)" fill="#CFD8FF"/>
<rect x="330.639" y="135.212" width="60" height="200" rx="30" transform="rotate(-144 330.639 135.212)" fill="#CFD8FF"/>
<rect x="566.737" y="135.212" width="60" height="200" rx="30" transform="rotate(-144 566.737 135.212)" fill="#CFD8FF"/>
<rect x="802.835" y="135.212" width="60" height="200" rx="30" transform="rotate(-144 802.835 135.212)" fill="#CFD8FF"/>
<rect x="1038.93" y="134.212" width="60" height="200" rx="30" transform="rotate(-144 1038.93 134.212)" fill="#CFD8FF"/>
<rect x="1275.03" y="133.212" width="60" height="200" rx="30" transform="rotate(-144 1275.03 133.212)" fill="#CFD8FF"/>
<rect x="94.541" y="135.212" width="60" height="200" rx="30" transform="rotate(-144 94.541 135.212)" fill="#CFD8FF"/>
<circle cx="129.5" cy="695.5" r="26.5" fill="#CFD8FF"/>
<circle cx="365.5" cy="695.5" r="26.5" fill="#CFD8FF"/>
<circle cx="601.5" cy="695.5" r="26.5" fill="#CFD8FF"/>
<circle cx="837.5" cy="695.5" r="26.5" fill="#CFD8FF"/>
<circle cx="1073.5" cy="693.5" r="26.5" fill="#CFD8FF"/>
<circle cx="1309.5" cy="691.5" r="26.5" fill="#CFD8FF"/>
<circle cx="129.5" cy="448.5" r="26.5" fill="#CFD8FF"/>
<circle cx="365.5" cy="448.5" r="26.5" fill="#CFD8FF"/>
<circle cx="601.5" cy="448.5" r="26.5" fill="#CFD8FF"/>
<circle cx="837.5" cy="448.5" r="26.5" fill="#CFD8FF"/>
<circle cx="1073.5" cy="446.5" r="26.5" fill="#CFD8FF"/>
<circle cx="1309.5" cy="444.5" r="26.5" fill="#CFD8FF"/>
<circle cx="129.5" cy="201.5" r="26.5" fill="#CFD8FF"/>
<circle cx="365.5" cy="201.5" r="26.5" fill="#CFD8FF"/>
<circle cx="601.5" cy="201.5" r="26.5" fill="#CFD8FF"/>
<circle cx="837.5" cy="201.5" r="26.5" fill="#CFD8FF"/>
<circle cx="1073.5" cy="199.5" r="26.5" fill="#CFD8FF"/>
<circle cx="1309.5" cy="197.5" r="26.5" fill="#CFD8FF"/>
</g>
<defs>
<clipPath id="clip0_366_157">
<rect width="1440" height="830" fill="white"/>
</clipPath>
</defs>
</svg>
